# xmcd
#
# Track frame offsets: 
#        150
#        31009
#        63304
#        102696
#        172380
#
# Disc length: 2757 seconds
#
# Revision: 0
# Processed by: cddbd v1.5.1PL0 Copyright (c) Steve Scherf et al.
# Submitted via: ExactAudioCopy v0.95a5
#
DISCID=420ac305
DTITLE=Gov't Mule - Ram's Head - Baltimore, MD 06.25.05 Disc 2
DYEAR=2005
DGENRE=Blues
TTITLE0=One
TTITLE1=Patchwork Quilt
TTITLE2=Dirty Work
TTITLE3=Devil Likes It Slow 
TTITLE4=Drums
EXTD=
EXTT0=
EXTT1=
EXTT2=
EXTT3=
EXTT4=
PLAYORDER=
